<mxfile host="app.diagrams.net" modified="2021-08-19T11:12:12.863Z" agent="5.0 (Windows NT 10.0; Win64; x64) AppleWebKit/537.36 (KHTML, like Gecko) Chrome/92.0.4515.159 Safari/537.36" etag="bsx1-XqdJP-iW1TV7nQl" version="14.7.1" type="github">
  <diagram name="Architecture" id="Architecture">
    <mxGraphModel dx="868" dy="492" grid="1" gridSize="10" guides="1" tooltips="1" connect="1" arrows="1" fold="1" page="1" pageScale="1" pageWidth="850" pageHeight="1100" math="0" shadow="0">
      <root>
        <mxCell id="0" />
        <mxCell id="1" parent="0" />
        <mxCell id="PjaEeioHZseRxcnawcMe-181" value="&lt;p style=&quot;margin-left: 0 ; margin-right: 0 ; margin-top: 0px ; margin-bottom: 0px ; text-indent: 0 ; direction: ltr&quot;&gt;&lt;font style=&quot;font-size: 8px ; font-family: &amp;#34;segoe ui&amp;#34; ; color: #595959 ; direction: ltr ; letter-spacing: 0px ; line-height: 120% ; opacity: 1&quot;&gt;&lt;br&gt;&lt;/font&gt;&lt;/p&gt;" style="verticalAlign=bottom;align=left;vsdxID=24;fillColor=none;gradientColor=none;shape=stencil(nZBLDoAgDERP0z3SIyjew0SURgSD+Lu9kMZoXLhwN9O+tukAlrNpJg1SzDH4QW/URgNYgZTkjA4UkwJUgGXng+6DX1zLfmoymdXo17xh5zmRJ6Q42BWCfc2oJfdAr+Yv+AP9Cb7OJ3H/2JG1HNGz/84klThPVCc=);strokeColor=#bfbfbf;spacingBottom=-1;spacingRight=-1;labelBackgroundColor=none;rounded=0;html=1;whiteSpace=wrap;" parent="1" vertex="1">
          <mxGeometry x="617" y="252" width="95" height="166" as="geometry" />
        </mxCell>
        <mxCell id="Cpq1ZpIzhN0V-iwIdP6c-247" style="vsdxID=182;gradientColor=none;shape=stencil(nZBLDoAgDERP0z3SIyjew0SURgSD+Lu9kMZoXLhwN9O+tukAlrNpJg1SzDH4QW/URgNYgZTkjA4UkwJUgGXng+6DX1zLfmoymdXo17xh5zmRJ6Q42BWCfc2oJfdAr+Yv+AP9Cb7OJ3H/2JG1HNGz/84klThPVCc=);dashed=1;labelBackgroundColor=#FFFFFF;rounded=0;html=1;whiteSpace=wrap;strokeWidth=1;perimeterSpacing=0;fillColor=none;shadow=0;" parent="1" vertex="1">
          <mxGeometry x="64" y="190" width="680" height="340" as="geometry" />
        </mxCell>
        <mxCell id="PjaEeioHZseRxcnawcMe-200" value="" style="shape=image;imageAspect=0;aspect=fixed;verticalLabelPosition=bottom;verticalAlign=top;fontSize=12;strokeColor=#000000;image=https://www.jfrog.com/confluence/download/attachments/46107468/RTF?version=2&amp;modificationDate=1572965730000&amp;api=v2;" parent="1" vertex="1">
          <mxGeometry x="150" y="202" width="60" height="60" as="geometry" />
        </mxCell>
        <mxCell id="25" value="&lt;p style=&quot;margin-left: 0 ; margin-right: 0 ; margin-top: 0px ; margin-bottom: 0px ; text-indent: 0 ; direction: ltr&quot;&gt;&lt;font style=&quot;font-size: 8px ; font-family: &amp;#34;segoe ui&amp;#34; ; color: #595959 ; direction: ltr ; letter-spacing: 0px ; line-height: 120% ; opacity: 1&quot;&gt;&lt;br&gt;&lt;/font&gt;&lt;/p&gt;" style="verticalAlign=bottom;align=left;vsdxID=26;fillColor=none;gradientColor=none;shape=stencil(nZBLDoAgDERP0z3SIyjew0SURgSD+Lu9kMZoXLhwN9O+tukAlrNpJg1SzDH4QW/URgNYgZTkjA4UkwJUgGXng+6DX1zLfmoymdXo17xh5zmRJ6Q42BWCfc2oJfdAr+Yv+AP9Cb7OJ3H/2JG1HNGz/84klThPVCc=);strokeColor=#bfbfbf;spacingBottom=-1;spacingRight=-1;labelBackgroundColor=none;rounded=0;html=1;whiteSpace=wrap;" parent="1" vertex="1">
          <mxGeometry x="330" y="252" width="280" height="166" as="geometry" />
        </mxCell>
        <mxCell id="28" value="&lt;font style=&quot;font-size: 12px ; font-family: &amp;#34;segoe ui&amp;#34; ; color: #000000 ; direction: ltr ; letter-spacing: 0px ; line-height: 120% ; opacity: 1&quot;&gt;App server&lt;br&gt;&lt;/font&gt;" style="verticalAlign=middle;align=center;vsdxID=30;fillColor=none;gradientColor=none;shape=stencil(nZBLDoAgDERP0z3SIyjew0SURgSD+Lu9kMZoXLhwN9O+tukAlrNpJg1SzDH4QW/URgNYgZTkjA4UkwJUgGXng+6DX1zLfmoymdXo17xh5zmRJ6Q42BWCfc2oJfdAr+Yv+AP9Cb7OJ3H/2JG1HNGz/84klThPVCc=);strokeColor=none;labelBackgroundColor=none;rounded=0;html=1;whiteSpace=wrap;" parent="1" vertex="1">
          <mxGeometry x="330" y="252" width="260" height="19" as="geometry" />
        </mxCell>
        <mxCell id="162" style="vsdxID=134;edgeStyle=none;startArrow=block;endArrow=none;startSize=2;endSize=2;strokeColor=#0078d7;spacingTop=0;spacingBottom=0;spacingLeft=0;spacingRight=0;verticalAlign=middle;html=1;labelBackgroundColor=#ffffff;rounded=0;entryX=0.967;entryY=0.519;entryDx=0;entryDy=0;entryPerimeter=0;" parent="1" edge="1">
          <mxGeometry relative="1" as="geometry">
            <Array as="points" />
            <mxPoint x="350" y="336" as="sourcePoint" />
            <mxPoint x="281.18499999999995" y="336.68399999999997" as="targetPoint" />
          </mxGeometry>
        </mxCell>
        <mxCell id="51" value="&lt;font style=&quot;font-size: 8px ; font-family: &amp;#34;segoe ui&amp;#34; ; color: #2e75b6 ; direction: ltr ; letter-spacing: 0px ; line-height: 120% ; opacity: 1&quot;&gt;Multiple instances&lt;br&gt;&lt;/font&gt;" style="verticalAlign=middle;align=center;vsdxID=168;fillColor=none;gradientColor=none;shape=stencil(nZBLDoAgDERP0z3SIyjew0SURgSD+Lu9kMZoXLhwN9O+tukAlrNpJg1SzDH4QW/URgNYgZTkjA4UkwJUgGXng+6DX1zLfmoymdXo17xh5zmRJ6Q42BWCfc2oJfdAr+Yv+AP9Cb7OJ3H/2JG1HNGz/84klThPVCc=);strokeColor=none;labelBackgroundColor=none;rounded=0;html=1;whiteSpace=wrap;" parent="1" vertex="1">
          <mxGeometry x="447" y="348.26" width="60" height="19" as="geometry" />
        </mxCell>
        <mxCell id="88" value="&lt;div style=&quot;text-align: left&quot;&gt;&lt;span style=&quot;color: rgb(63 , 63 , 63) ; font-family: &amp;#34;segoe ui&amp;#34; ; font-size: 11px ; letter-spacing: 0px&quot;&gt;pull/push artifacts&lt;/span&gt;&lt;/div&gt;" style="verticalAlign=middle;align=center;vsdxID=275;fillColor=none;gradientColor=none;shape=stencil(nZBLDoAgDERP0z3SIyjew0SURgSD+Lu9kMZoXLhwN9O+tukAlrNpJg1SzDH4QW/URgNYgZTkjA4UkwJUgGXng+6DX1zLfmoymdXo17xh5zmRJ6Q42BWCfc2oJfdAr+Yv+AP9Cb7OJ3H/2JG1HNGz/84klThPVCc=);strokeColor=none;labelBackgroundColor=none;rounded=0;html=1;whiteSpace=wrap;" parent="1" vertex="1">
          <mxGeometry x="184" y="404" width="47" height="28" as="geometry" />
        </mxCell>
        <mxCell id="150" value="&lt;font style=&quot;font-size: 11px ; font-family: &amp;#34;segoe ui&amp;#34; ; direction: ltr ; letter-spacing: 0px ; line-height: 120% ; opacity: 1&quot;&gt;Artifactory&lt;br&gt;&lt;/font&gt;" style="verticalAlign=middle;align=center;vsdxID=390;fillColor=none;gradientColor=none;shape=stencil(nZBLDoAgDERP0z3SIyjew0SURgSD+Lu9kMZoXLhwN9O+tukAlrNpJg1SzDH4QW/URgNYgZTkjA4UkwJUgGXng+6DX1zLfmoymdXo17xh5zmRJ6Q42BWCfc2oJfdAr+Yv+AP9Cb7OJ3H/2JG1HNGz/84klThPVCc=);strokeColor=none;labelBackgroundColor=none;rounded=0;html=1;whiteSpace=wrap;" parent="1" vertex="1">
          <mxGeometry x="134" y="233" width="92" height="35" as="geometry" />
        </mxCell>
        <mxCell id="Cpq1ZpIzhN0V-iwIdP6c-179" value="&lt;font style=&quot;font-size: 12px&quot;&gt;Pet Clinic&lt;/font&gt;" style="text;html=1;strokeColor=none;fillColor=none;align=center;verticalAlign=middle;whiteSpace=wrap;rounded=0;fontSize=12;" parent="1" vertex="1">
          <mxGeometry x="518.88" y="389.5" width="98" height="30" as="geometry" />
        </mxCell>
        <mxCell id="Cpq1ZpIzhN0V-iwIdP6c-241" value="" style="shape=image;verticalLabelPosition=bottom;labelBackgroundColor=#ffffff;verticalAlign=top;aspect=fixed;imageAspect=0;image=https://cdn4.iconfinder.com/data/icons/iconsimple-logotypes/512/github-512.png;" parent="1" vertex="1">
          <mxGeometry x="92.5" y="126" width="50" height="50" as="geometry" />
        </mxCell>
        <mxCell id="Cpq1ZpIzhN0V-iwIdP6c-243" style="vsdxID=134;edgeStyle=none;startArrow=block;endArrow=none;startSize=2;endSize=2;strokeColor=#0078d7;spacingTop=0;spacingBottom=0;spacingLeft=0;spacingRight=0;verticalAlign=middle;html=1;labelBackgroundColor=#ffffff;rounded=0;exitX=0.497;exitY=0.009;exitDx=0;exitDy=0;exitPerimeter=0;" parent="1" edge="1">
          <mxGeometry relative="1" as="geometry">
            <Array as="points" />
            <mxPoint x="255.33500000000004" y="308.32399999999996" as="sourcePoint" />
            <mxPoint x="255.03039486100022" y="158" as="targetPoint" />
          </mxGeometry>
        </mxCell>
        <mxCell id="52" value="&lt;font style=&quot;font-size:11px;font-family:Segoe UI;color:#000000;direction:ltr;letter-spacing:0px;line-height:120%;opacity:1&quot;&gt;Client Apps&lt;br/&gt;&lt;/font&gt;" style="verticalAlign=middle;align=center;vsdxID=181;fillColor=none;gradientColor=none;shape=stencil(nZBLDoAgDERP0z3SIyjew0SURgSD+Lu9kMZoXLhwN9O+tukAlrNpJg1SzDH4QW/URgNYgZTkjA4UkwJUgGXng+6DX1zLfmoymdXo17xh5zmRJ6Q42BWCfc2oJfdAr+Yv+AP9Cb7OJ3H/2JG1HNGz/84klThPVCc=);strokeColor=none;labelBackgroundColor=none;rounded=0;html=1;whiteSpace=wrap;" parent="1" vertex="1">
          <mxGeometry x="284" y="161.5" width="38" height="20" as="geometry" />
        </mxCell>
        <mxCell id="Cpq1ZpIzhN0V-iwIdP6c-245" value="&lt;font style=&quot;font-size: 11px ; font-family: &amp;#34;segoe ui&amp;#34; ; color: #000000 ; direction: ltr ; letter-spacing: 0px ; line-height: 120% ; opacity: 1&quot;&gt;Github&lt;br&gt;&lt;/font&gt;" style="verticalAlign=middle;align=center;vsdxID=181;fillColor=none;gradientColor=none;shape=stencil(nZBLDoAgDERP0z3SIyjew0SURgSD+Lu9kMZoXLhwN9O+tukAlrNpJg1SzDH4QW/URgNYgZTkjA4UkwJUgGXng+6DX1zLfmoymdXo17xh5zmRJ6Q42BWCfc2oJfdAr+Yv+AP9Cb7OJ3H/2JG1HNGz/84klThPVCc=);strokeColor=none;labelBackgroundColor=none;rounded=0;html=1;whiteSpace=wrap;" parent="1" vertex="1">
          <mxGeometry x="60" y="169" width="38" height="20" as="geometry" />
        </mxCell>
        <mxCell id="153" value="&lt;div&gt;&lt;span style=&quot;font-family: &amp;#34;segoe ui&amp;#34; ; font-size: 11px ; letter-spacing: 0px&quot;&gt;CI/CD&lt;/span&gt;&lt;/div&gt;" style="verticalAlign=top;align=right;vsdxID=274;fillColor=#f2f2f2;gradientColor=none;shape=stencil(nZBLDoAgDERP0z3SIyjew0SURgSD+Lu9kMZoXLhwN9O+tukAlrNpJg1SzDH4QW/URgNYgZTkjA4UkwJUgGXng+6DX1zLfmoymdXo17xh5zmRJ6Q42BWCfc2oJfdAr+Yv+AP9Cb7OJ3H/2JG1HNGz/84klThPVCc=);strokeColor=#bfbfbf;labelBackgroundColor=none;rounded=0;html=1;whiteSpace=wrap;" parent="1" vertex="1">
          <mxGeometry x="70" y="406" width="80" height="114" as="geometry" />
        </mxCell>
        <mxCell id="155" value="&lt;font style=&quot;font-size: 11px ; font-family: &amp;#34;segoe ui&amp;#34; ; color: #0078d7 ; direction: ltr ; letter-spacing: 0px ; line-height: 120% ; opacity: 1&quot;&gt;Jenkins&lt;br&gt;&lt;/font&gt;" style="verticalAlign=middle;align=center;vsdxID=173;fillColor=none;gradientColor=none;shape=stencil(nZBLDoAgDERP0z3SIyjew0SURgSD+Lu9kMZoXLhwN9O+tukAlrNpJg1SzDH4QW/URgNYgZTkjA4UkwJUgGXng+6DX1zLfmoymdXo17xh5zmRJ6Q42BWCfc2oJfdAr+Yv+AP9Cb7OJ3H/2JG1HNGz/84klThPVCc=);strokeColor=none;labelBackgroundColor=none;rounded=0;html=1;whiteSpace=wrap;" parent="1" vertex="1">
          <mxGeometry x="80" y="485" width="70" height="35" as="geometry" />
        </mxCell>
        <mxCell id="R70YHDZ5rD5ZLVwwbKBx-177" style="vsdxID=134;edgeStyle=none;startArrow=block;endArrow=none;startSize=2;endSize=2;strokeColor=#0078d7;spacingTop=0;spacingBottom=0;spacingLeft=0;spacingRight=0;verticalAlign=middle;html=1;labelBackgroundColor=#ffffff;rounded=0;entryX=0.5;entryY=1;entryDx=0;entryDy=0;" parent="1" target="Cpq1ZpIzhN0V-iwIdP6c-241" edge="1">
          <mxGeometry relative="1" as="geometry">
            <Array as="points" />
            <mxPoint x="117" y="407" as="sourcePoint" />
            <mxPoint x="117.00039486100033" y="186" as="targetPoint" />
          </mxGeometry>
        </mxCell>
        <mxCell id="OXFVEwI2tE2bpbJsLajP-177" value="" style="shape=image;imageAspect=0;aspect=fixed;verticalLabelPosition=bottom;verticalAlign=top;image=https://www.jenkins.io/images/logos/jenkins/256.png;" parent="1" vertex="1">
          <mxGeometry x="92.5" y="432" width="45" height="62.27" as="geometry" />
        </mxCell>
        <mxCell id="PjaEeioHZseRxcnawcMe-177" value="" style="shape=image;imageAspect=0;aspect=fixed;verticalLabelPosition=bottom;verticalAlign=top;image=https://static.thenounproject.com/png/754075-200.png;" parent="1" vertex="1">
          <mxGeometry x="672.27" y="118.5" width="76" height="76" as="geometry" />
        </mxCell>
        <mxCell id="PjaEeioHZseRxcnawcMe-183" value="" style="shape=image;imageAspect=0;aspect=fixed;verticalLabelPosition=bottom;verticalAlign=top;fontSize=12;strokeColor=#000000;image=https://destatic.blob.core.windows.net/images/nginx.png;" parent="1" vertex="1">
          <mxGeometry x="233" y="311.39" width="46" height="52.23" as="geometry" />
        </mxCell>
        <mxCell id="44" style="vsdxID=126;fillColor=none;gradientColor=none;strokeColor=none;labelBackgroundColor=none;rounded=0;html=1;whiteSpace=wrap;" parent="1" vertex="1">
          <mxGeometry x="232" y="129" width="76.5" height="60" as="geometry" />
        </mxCell>
        <mxCell id="45" style="vsdxID=127;fillColor=#59b4d9;gradientColor=none;shape=stencil(vVLLDsIgEPwajjQUTBPOVf+DWNoSEZot2vr3gqD2YTz04G13dnZnFwaxsm9FJxElvQN7loOqXIvYHlGqTCtBOR8hdkCsrC3IBuzVVDHvRGCG6GJvYcIY+0jooOQeM84yzp/IMZIFnHwVEnmXkTzyITUUGaEReVFm83KS5o9YjKrHYJ1wypqZthbQSOyVcK1FMyv1g5TdCk67aWUmh/Diq/LWO96br17mD7csxX9QNxJXH+2Dj0VqpXV02LS+tJSHoh3Z4QE=);strokeColor=none;strokeWidth=2;spacingTop=-3;spacingBottom=-3;spacingLeft=-3;spacingRight=-3;labelBackgroundColor=none;rounded=0;html=1;whiteSpace=wrap;" parent="44" vertex="1">
          <mxGeometry y="9" width="46" height="30" as="geometry" />
        </mxCell>
        <mxCell id="46" style="vsdxID=128;fillColor=#a0a1a2;gradientColor=none;shape=stencil(tZLdDoIwDIWfZpcjg4mRa8T3WGTA4txINwXf3uFAfkQvSLxre76uaXcQTU3Fao4iYizoC29EbitEjyiKhKo4COsiRDNE00IDL0HfVO7zmnVkF131vXuh9X3JvmuJyMOn5JWdPCmFmpC77yCDs1NgAAMSehZ6OIyDhPpSO20no36Iex2zVhgM2jIrtJrRkkHJsRuGC8nKmWQazuuP8uoei9HkBzqI2+D3UpuvtPo5fzmRC0aHFEJKb7CpvnSUK3k30uwJ);strokeColor=none;strokeWidth=2;spacingTop=-3;spacingBottom=-3;spacingLeft=-3;spacingRight=-3;labelBackgroundColor=none;rounded=0;html=1;whiteSpace=wrap;" parent="44" vertex="1">
          <mxGeometry width="46" height="11" as="geometry" />
        </mxCell>
        <mxCell id="47" style="vsdxID=129;fillColor=#FFFFFF;gradientColor=none;fillOpacity=20;strokeOpacity=20;shape=stencil(vVLREoIgEPwaHnFQ0sZns/9gEpWJxDko8e/DMNO0Xprp7W53j7vjFtFM16zlKCLagDrzThSmRvSAokg0NQdhXIRojmhWKuAVqGtT+Lxlg3KILuo2vGB93S6I06EoIr0HyCM7ei2Dk2Ng0iZeCv0T2IcesfNiMtHJ+LbFzAqNQRlmhGoWYsmg4th1wqVk1YLSHeftCh5nk6LhnzqncUB/2WP1KyEh/9okDRK62XtTPQ22db6l9PupXfDySCmk9Bab8++ecpD3I83v);strokeColor=none;strokeWidth=2;spacingTop=-3;spacingBottom=-3;spacingLeft=-3;spacingRight=-3;labelBackgroundColor=none;rounded=0;html=1;whiteSpace=wrap;" parent="44" vertex="1">
          <mxGeometry width="40" height="39" as="geometry" />
        </mxCell>
        <mxCell id="48" style="vsdxID=130;fillColor=#FFFFFF;gradientColor=none;shape=stencil(nZBLDoAgDERP0z3SIyjew0SURgSD+Lu9kMZoXLhwN9O+tukAlrNpJg1SzDH4QW/URgNYgZTkjA4UkwJUgGXng+6DX1zLfmoymdXo17xh5zmRJ6Q42BWCfc2oJfdAr+Yv+AP9Cb7OJ3H/2JG1HNGz/84klThPVCc=);strokeColor=none;strokeWidth=2;spacingTop=-3;spacingBottom=-3;spacingLeft=-3;spacingRight=-3;labelBackgroundColor=none;rounded=0;html=1;whiteSpace=wrap;" parent="44" vertex="1">
          <mxGeometry x="11" y="4" width="31" height="3" as="geometry" />
        </mxCell>
        <mxCell id="49" style="vsdxID=131;fillColor=#59b4d9;gradientColor=none;shape=stencil(lVHREoIgEPwaHnEQtHw3+w8mUZlInIOS/j4InVKnqd7udm/3Fg6x0nR8EIgSY0GfxShr2yF2QJTKvhMgra8QqxArGw2iBX3t69gPPEyG6qJvwcFFXUpI0FByj31eJHnxRI5xnMPJs+DWNIGNYvbM0iSjC9dph8PcSYNBW26l7hec4tAK7LfhRvF2ChcpMwoxbOBP+Xb7Tb4Z+vrmvxOSHxL64vX7jVQqHu+dX1/LQ/HSrHoA);strokeColor=none;strokeWidth=2;spacingTop=-3;spacingBottom=-3;spacingLeft=-3;spacingRight=-3;labelBackgroundColor=none;rounded=0;html=1;whiteSpace=wrap;" parent="44" vertex="1">
          <mxGeometry x="2" y="1" width="7" height="7" as="geometry" />
        </mxCell>
        <mxCell id="50" style="vsdxID=132;fillColor=#FFFFFF;gradientColor=none;shape=stencil(nZLdDoIwDIWfprdLtzqQa8T3IGHIIjIyhj9vL3MxgkYQ70677zRdeoDSrspbBQI7Z81RXXThKqAdCKGbSlntBgWUAaWlsepgTd8UoW5zT3p1Mmc/4Rp8MmI89i6Bt9DhiI96H/BaNyOcEhbT7zhOULlq8Az8ufQMLCKG08kbzjD+bnj+6E9cblnC16yzYFi80CBe1y11XYdwjN/f0zC0QpIouwM=);strokeColor=none;strokeWidth=2;spacingTop=-3;spacingBottom=-3;spacingLeft=-3;spacingRight=-3;labelBackgroundColor=none;rounded=0;html=1;whiteSpace=wrap;" parent="44" vertex="1">
          <mxGeometry x="3" y="3" width="6" height="5" as="geometry" />
        </mxCell>
        <mxCell id="PjaEeioHZseRxcnawcMe-192" value="&lt;font style=&quot;font-size: 12px ; font-family: &amp;#34;segoe ui&amp;#34; ; color: #000000 ; direction: ltr ; letter-spacing: 0px ; line-height: 120% ; opacity: 1&quot;&gt;Database&lt;br&gt;&lt;/font&gt;" style="verticalAlign=middle;align=center;vsdxID=29;fillColor=none;gradientColor=none;shape=stencil(nZBLDoAgDERP0z3SIyjew0SURgSD+Lu9kMZoXLhwN9O+tukAlrNpJg1SzDH4QW/URgNYgZTkjA4UkwJUgGXng+6DX1zLfmoymdXo17xh5zmRJ6Q42BWCfc2oJfdAr+Yv+AP9Cb7OJ3H/2JG1HNGz/84klThPVCc=);strokeColor=none;labelBackgroundColor=none;rounded=0;html=1;whiteSpace=wrap;" parent="1" vertex="1">
          <mxGeometry x="617" y="252" width="95" height="19" as="geometry" />
        </mxCell>
        <mxCell id="PjaEeioHZseRxcnawcMe-198" value="" style="shape=image;imageAspect=0;aspect=fixed;verticalLabelPosition=bottom;verticalAlign=top;strokeColor=#000000;image=https://static-00.iconduck.com/assets.00/virtual-machines-icon-512x464-nlf7gddb.png;" parent="1" vertex="1">
          <mxGeometry x="431" y="228.43" width="26" height="23.57" as="geometry" />
        </mxCell>
        <mxCell id="PjaEeioHZseRxcnawcMe-199" value="" style="shape=image;imageAspect=0;aspect=fixed;verticalLabelPosition=bottom;verticalAlign=top;strokeColor=#000000;image=https://static-00.iconduck.com/assets.00/virtual-machines-icon-512x464-nlf7gddb.png;" parent="1" vertex="1">
          <mxGeometry x="617" y="228.43" width="26" height="23.57" as="geometry" />
        </mxCell>
        <mxCell id="PjaEeioHZseRxcnawcMe-202" value="" style="strokeWidth=1;html=1;shape=mxgraph.flowchart.annotation_2;align=left;labelPosition=right;pointerEvents=1;fontSize=12;dashed=1;strokeColor=#A680B8;" parent="1" vertex="1">
          <mxGeometry x="290" y="250" width="32" height="170" as="geometry" />
        </mxCell>
        <mxCell id="PjaEeioHZseRxcnawcMe-203" style="vsdxID=134;edgeStyle=none;startArrow=block;endArrow=none;startSize=2;endSize=2;strokeColor=#0078d7;spacingTop=0;spacingBottom=0;spacingLeft=0;spacingRight=0;verticalAlign=middle;html=1;labelBackgroundColor=#ffffff;rounded=0;entryX=1.005;entryY=0.605;entryDx=0;entryDy=0;entryPerimeter=0;exitX=0;exitY=0.5;exitDx=0;exitDy=0;exitPerimeter=0;" parent="1" source="PjaEeioHZseRxcnawcMe-202" target="153" edge="1">
          <mxGeometry relative="1" as="geometry">
            <Array as="points">
              <mxPoint x="290" y="475" />
            </Array>
            <mxPoint x="233" y="618" as="sourcePoint" />
            <mxPoint x="233.5" y="387" as="targetPoint" />
          </mxGeometry>
        </mxCell>
        <mxCell id="PjaEeioHZseRxcnawcMe-204" value="&lt;div style=&quot;text-align: left&quot;&gt;&lt;span style=&quot;color: rgb(63 , 63 , 63) ; font-family: &amp;#34;segoe ui&amp;#34; ; font-size: 11px ; letter-spacing: 0px&quot;&gt;deploy&lt;/span&gt;&lt;/div&gt;&lt;div style=&quot;text-align: left&quot;&gt;&lt;span style=&quot;color: rgb(63 , 63 , 63) ; font-family: &amp;#34;segoe ui&amp;#34; ; font-size: 11px ; letter-spacing: 0px&quot;&gt;artifacts&lt;/span&gt;&lt;/div&gt;" style="verticalAlign=middle;align=center;vsdxID=275;fillColor=none;gradientColor=none;shape=stencil(nZBLDoAgDERP0z3SIyjew0SURgSD+Lu9kMZoXLhwN9O+tukAlrNpJg1SzDH4QW/URgNYgZTkjA4UkwJUgGXng+6DX1zLfmoymdXo17xh5zmRJ6Q42BWCfc2oJfdAr+Yv+AP9Cb7OJ3H/2JG1HNGz/84klThPVCc=);strokeColor=none;labelBackgroundColor=none;rounded=0;html=1;whiteSpace=wrap;" parent="1" vertex="1">
          <mxGeometry x="243" y="444.37" width="47" height="28" as="geometry" />
        </mxCell>
        <mxCell id="x6dMfpFJ78mqeGFsQGTt-174" value="&lt;div&gt;&lt;span style=&quot;color: rgb(63 , 63 , 63) ; font-family: &amp;#34;segoe ui&amp;#34; ; font-size: 11px ; letter-spacing: 0px&quot;&gt;Load balancer&lt;/span&gt;&lt;/div&gt;" style="verticalAlign=middle;align=right;vsdxID=275;fillColor=none;gradientColor=none;shape=stencil(nZBLDoAgDERP0z3SIyjew0SURgSD+Lu9kMZoXLhwN9O+tukAlrNpJg1SzDH4QW/URgNYgZTkjA4UkwJUgGXng+6DX1zLfmoymdXo17xh5zmRJ6Q42BWCfc2oJfdAr+Yv+AP9Cb7OJ3H/2JG1HNGz/84klThPVCc=);strokeColor=none;labelBackgroundColor=none;rounded=0;html=1;whiteSpace=wrap;" parent="1" vertex="1">
          <mxGeometry x="200" y="285" width="47" height="28" as="geometry" />
        </mxCell>
        <mxCell id="0hLmNiex2o3Auv5M2DS7-177" value="" style="shape=image;imageAspect=0;aspect=fixed;verticalLabelPosition=bottom;verticalAlign=top;image=https://upload.wikimedia.org/wikipedia/commons/b/ba/Database-postgres.svg;" parent="1" vertex="1">
          <mxGeometry x="629" y="285" width="75.32" height="106.43" as="geometry" />
        </mxCell>
        <mxCell id="y_L1rLnan1oXnGs_XWC_-179" style="vsdxID=174;edgeStyle=none;startArrow=block;endArrow=none;startSize=2;endSize=2;strokeColor=#0078d7;spacingTop=0;spacingBottom=0;spacingLeft=0;spacingRight=0;verticalAlign=middle;html=1;labelBackgroundColor=#ffffff;rounded=0;" parent="1" edge="1">
          <mxGeometry relative="1" as="geometry">
            <Array as="points">
              <mxPoint x="600" y="336" />
            </Array>
            <mxPoint x="630" y="336" as="sourcePoint" />
            <mxPoint x="620" y="336" as="targetPoint" />
          </mxGeometry>
        </mxCell>
        <mxCell id="0hLmNiex2o3Auv5M2DS7-179" style="vsdxID=134;edgeStyle=none;startArrow=block;endArrow=none;startSize=2;endSize=2;strokeColor=#0078d7;spacingTop=0;spacingBottom=0;spacingLeft=0;spacingRight=0;verticalAlign=middle;html=1;labelBackgroundColor=#ffffff;rounded=0;dashed=1;" parent="1" edge="1">
          <mxGeometry relative="1" as="geometry">
            <Array as="points" />
            <mxPoint x="490" y="337.8" as="sourcePoint" />
            <mxPoint x="462.3499999999999" y="337.7032700859769" as="targetPoint" />
          </mxGeometry>
        </mxCell>
        <mxCell id="PjaEeioHZseRxcnawcMe-201" style="vsdxID=134;edgeStyle=none;startArrow=block;endArrow=classicThin;startSize=2;endSize=2;strokeColor=#0078d7;spacingTop=0;spacingBottom=0;spacingLeft=0;spacingRight=0;verticalAlign=middle;html=1;labelBackgroundColor=#ffffff;rounded=0;exitX=1;exitY=0.386;exitDx=0;exitDy=0;exitPerimeter=0;endFill=1;" parent="1" source="153" edge="1">
          <mxGeometry relative="1" as="geometry">
            <Array as="points">
              <mxPoint x="180" y="450" />
            </Array>
            <mxPoint x="179.80500000000004" y="331.82399999999996" as="sourcePoint" />
            <mxPoint x="180" y="260" as="targetPoint" />
          </mxGeometry>
        </mxCell>
        <mxCell id="7HvjIKDKT4yOWQyoark6-174" value="" style="shape=image;imageAspect=0;aspect=fixed;verticalLabelPosition=bottom;verticalAlign=top;dashed=1;fontSize=12;strokeColor=#A680B8;strokeWidth=1;image=https://avatars.githubusercontent.com/u/33972111?s=280&amp;v=4;" vertex="1" parent="1">
          <mxGeometry x="71" y="404" width="32" height="32" as="geometry" />
        </mxCell>
        <mxCell id="7HvjIKDKT4yOWQyoark6-175" value="" style="shape=image;imageAspect=0;aspect=fixed;verticalLabelPosition=bottom;verticalAlign=top;dashed=1;fontSize=12;strokeColor=#A680B8;strokeWidth=1;image=https://avatars.githubusercontent.com/u/33972111?s=280&amp;v=4;" vertex="1" parent="1">
          <mxGeometry x="340" y="262" width="32" height="32" as="geometry" />
        </mxCell>
        <mxCell id="7HvjIKDKT4yOWQyoark6-176" value="" style="shape=image;imageAspect=0;aspect=fixed;verticalLabelPosition=bottom;verticalAlign=top;dashed=1;fontSize=12;strokeColor=#A680B8;strokeWidth=1;image=https://avatars.githubusercontent.com/u/33972111?s=280&amp;v=4;" vertex="1" parent="1">
          <mxGeometry x="620" y="262" width="32" height="32" as="geometry" />
        </mxCell>
        <mxCell id="7HvjIKDKT4yOWQyoark6-177" value="" style="shape=image;imageAspect=0;aspect=fixed;verticalLabelPosition=bottom;verticalAlign=top;image=https://i.dlpng.com/static/png/7264192_preview.png;" vertex="1" parent="1">
          <mxGeometry x="352" y="322.75" width="77" height="27.25" as="geometry" />
        </mxCell>
        <mxCell id="7HvjIKDKT4yOWQyoark6-178" value="" style="shape=image;imageAspect=0;aspect=fixed;verticalLabelPosition=bottom;verticalAlign=top;image=data:image/png,iVBORw0KGgoAAAANSUhEUgAAAK4AAACuCAQAAAAFBf5lAAAABGdBTUEAALGPC/xhBQAAACBjSFJNAAB6JgAAgIQAAPoAAACA6AAAdTAAAOpgAAA6mAAAF3CculE8AAAAAmJLR0QAAKqNIzIAAAAJcEhZcwAADiwAAA4sAfmb7hAAAAAHdElNRQfkBQ4JNwmPNChoAAAY+0lEQVR42u2deZxdRZXHf6eq7r1v33pf0umks0BCQ4gBAgkQRiDIakbcV2QUkcFtcBhFHRln/MioKKICioofV1R0Bh0RBRQIYRFIQiAmISudrZf03v3WW2f+eEu/7nQ6naTfu6/b933/9L3vLqd+Xa/uqapT5wJlypQpU6ZMmTJlHIKcNuBECYIsYp3oc9qQcRBOG3CiRDHc3H9VDcJOGzITccGsl/8nW5XThozDtK+5FryH2OB3plDltCmHMe3FnY2eOL/Ga6z60mt1p724LwHgJObqVttpUw5j2ot7HgAiVnpBWdwp5xXUmKIR4BanLTmcUnzIHhNDQFjPAbTptCWHM+3FTYIauBYgsNOmHMY0bxZOgw0+A2FAHHTalsOZ5uJuh9/La0Bg3jXte/KlhoB6PfWBqUctk04bM7PwIuARvwaD6QlPwOO0OTMJNyTUO2kYDBb/ClQ4bdBMwoCaRxvAYNplnDzt3Z5SQkIF6X4wGEz/fRW8Ths0c/Ag6JFfQRIMpi1yXrneThkR1LjUZygGBiNBHwYCTps0U/Ah6DFupWi6SRAPeANup02aKUgIP32V4pnWdpOxqNx5mCIUVI34TrqtBVOXcWXZBZsSAlAwF9PvodPSYkBdv0xUHfFov/CGIobLabOnAxYqoC6kjRlhmWLqFlON1+WNoJmsWrlGXmed5zUNpw0vfXzwecQN2J+TNqq+EHb7xhzlgRueoFotvyXWyjvEoukflVEEFGQd3YNYVloMylsCrtHdBg/8wmyRN9FaGhJPGZeHTN9x3u3viEoAaik9khOWqVd8LGT6847xIqKMU8XttBOaOukznmrgIqcNL31qsFAYV4lX86Q9YF4TUSO1NoJGIRaLb9B+MFL0sLEiIstd4UngRtAUN1BnnrQb5UULKL/WqnpxC+1JO2byVhEpN7OTxS+/jKERacXvjcUjvTETfsNcQ8/BBoNpvfGGOlmOGJsULvgi4t5sdwGMhLjLqh3xWt2wasXXqQ8MRkr+3JxXdromiYA7LL6XrpNp/0B93uvN1tqFANQSeiTTnRiUX/aGypM8k0b4xV1I5aQdkp9yGdm5VC8AYyW9lO2n0cdNsyztJLEQUPIL+Q2C+qLfzI/5MFfS1myNpo9N/9iLonESAPU26s/zEL7j8Y5IKyBPTk/ugJGS/xE0yhOTk8aEax5tyvMQ1hqNI1VTwfDTL7LfyQd94fJY7qTx4h0Qt+XV2m7zEoF5mW8tAPQ+ZMdyO9SKaR7TUlxMmLNy7SmD5V1z5ch4rQWrmp7N1ekf16mQ0wZPJwTUhRjO1dsO66zRTyu5JltvwfJ6p609emlKCoaei5Fm9Dm5caRrUIWPEy5G9tkWx/ZS7+qWmBvDoywSa4djI1tDuMetF+U2JZX8mGKJ1VyCiOY24rw+v24aMIKiNrep9GJGs9MGT0jJiUuvYjCzoXUsP6CZoQXndcX49e7gAacNnpASE1eAttOe8b/T0H3cPrLNy5MXxfFOp02esDQlhcAPDtLDmQ2lwqMfWZ7oKOFd9g1m1S+cNnk6oWCeSR0ZT/ZLY6MSxAdHfGAwbPnpN1DprZwsWQRMSbdn/Nw/m778ARsD5iLaly8vtRsXEOqcNnr6QKAFtBkMph51Xn67FcZsqe4ZVXeZnjQbygOOk6YGgHpfOmJc3tsgg3nfCZhn0v7R8oo7g2Z5SnLSeOCzxB3QYOpU5+bXXUINyf8aU3f71eXlunsMmLBqxUOZEFFffryXgFFPT4yWF79WVlneSXMRAGsRvQhGXL4fGBkQbwDBOJfaRtXdDnVaifXjSxsPDJjn0y4wtsjF+fVSADDek5n3TX+SxtUl5rCXOhEA4jLaCxb3+/35Mw5eVEl5ay6UlMHqg2VxjxEvALoCe5GUHwXyPV43PPXi+Zy4MWN1WdxjhgDgCuyjNrU8vytcBUD+a67NfdVsLsGMANMBCbqC9omHPCErby9BXJQNKhV3Lqeyp3tcuACoy8UOeRPgy9vrPpeGwGDaYy4pNwrHjR+A60LxO9E6IqKAXIVhMGLyI79CxGkTx6Xk3MNPwY31qMe38vYNIIyeR0SfWlK12bbTWSs0xAK4kZJ3ue99N6JHvJ4LUiVr9RJ7thFineqWW+UmozvOySKUpQTm+BohqMOdDFOdjshaO+Y5ENqY6h+b+KMaHRQJ+/rN1HYAEuS1f86X0p30WR44UgKWeuyHa07yepzKJuq4loMgGsQ28YC4L7m/FBO3TBmrAHg9crF4m/g6raUt9Bz9UF2nlrjCNWLin3kVAPFmOiA/J30T1Q4/KoV3hTrfnO31u2vU6fLztCs9DkzrjOVACSZ0mgoIAUu9Tt4kHqZO2HRA/Ey8y2jyTrKRsmAukD8z3h5SEwczSUgQsr27KryezFPpoYyHscU6E2hwWoippRFvhqqQ7xK/SYfj007xWbUoJCcf81WB6oDrjcZJwNwJjlqa+YxGQjbRUxl5H51RQf4WAKtKfYT+mov3elCdvIyO7VnfiGZXnWvWuN8txwp4TDOiFhpnBFqaVNOY72sByCszSwGS9F6nFZlS5BJ6Mi+o2aYbZ52Qi3oG/hlh0/BYtWqeXCGvkp+me+hhelb+SK32Bxei/rAzXHCFsnWXfuVThVy+WmxX7HJembcl+NZ958lHsI32iWGjz0y0Job5+cNOOhtu2m7uFS6hAgMGw+1PVNhkViarXvS8OIebdZCq2Y8wTEiAtoo7rPuHuz3YOo4BYRzoxcs4BwCoUXpUfwyFoqjiSsif6rm4gitHyqqvxpsQQy9Fk+2xwbX79Dgu69OQbqrTrqgU1ewCx9zwAwkDKpsck4EkdWE7bRbrxcNX7H4Uw2gf14YDAJA5jVyGUci+XZFbdDe0mWrllTiDT0Md+2CegAUJSqIXfbQdu7CDdoidRltk2OaJo3D8MGX3T/itAECPqcsQK1x3osjNQhRI4AXXC145EOE6XctNVMFz0KQ9ZFKNVgBAJrmhmEBg0kjyMNsAIGx06BixOIB23o2o2Is+OigHvL2HEm/CA7CRxPBRLYgh3oQz03/TpmQsgu6CldZxX+QseLDe6hV+lQpGBQB4PSpgm7bQIBgpEY/1xRMA4NZGf3/S4rnJTrvrOO/mxwDk9fY3IQD0qCv1Wu20ADMHBbM5u8hK3hsy/y4Wq/jgl5HALNF04peaAAMul7g744ZtkAucLnVRMExaIf/Te94NqC7gXRQMRZ9AFAymNuNip0tdcCK4BHIRfR998ifBguajEbAUfQT9YLDYqi47BzM80qERgFpNr6ZbQNdxeS7vBRAyjTq1TC0LGUdK3kYgL92MATBS4o/m6UBhG6ASwI9AQDye6Qr3053yUrnAVef1zJP+Cc5qxWnktzzVao5artaIG+lr4kHaih7qkv9mhg+vjwQJ0Uw/QBxMbeIWMwLcXJTyOeqKBUC+gZ/ry3I74uimARwU++xemcQeexgk2UyKBMg2E4YGYFSmamFSExp1gILsQn4mgJR4TH3DeHxosAU7Mrv8sIyeS+zPYyl10YP0zdDGqD66NzwjIKhW+gMSY2K/RgfaMWnSxDj6x0a/eMy6+K2UN2Y2V3yb+mmvuFMt9xvFXQDkeCcCQFhciXfxEo4c5yICRoy60UYb6Bm8LHdZvXN0JzpwEf5Uw2/mt1Kcfi3/ZO5ke6jIBSsBcStwCG5vsoWX89k8H/WIsO+oj/IUDXI/HUI7dovNeJnaZIdrUOuB3AEuqOrYOzhF66ytQ0PN2O1AyUpA3CwVsESPJxkWdbolFVZ1dgVDmLIaHi2IRTTVqaOATGCPjqp2tOlOY0AOLUzYvHGcqwVhmjEaiAfh3AuRSkjcw7kEPnpVHZIxmIjoumScn3DapDKlQgl1UxQ0ecIBIZMJp02ZshKVBGGYomuhuDqujNtncKiGE7jg8cibaA+Y/h04lsQqDagnwyVVaT46SsCqRdgMcZ3+BkwAnfSAfIxekn2637JPTST4r2OOZhDCashEUEewUM/FPG6hXfLb+iXSKaeLMoYSEPdk3IMLvm9fk9uRpEPo4w4xxK/BVh3JvJlGocTslEfUcDWqOYRItlmjvfRLdZ/vlXjROwolziJIqKuoaxLd2wk/dED8wDyrlQo5JnxslEDU8GZE0Pg7+QGxEScyoaU5ARfccRQjOHRa0QSGu0F8jP6CgWOus3F6lX4mPiRaPKq0VkYUuc2NQIgBj12Belmn/Ik2sa1if0p3AAAMEGw/lvLZOJNP5Sp4JnQU4xiiDtqEjbRBbqL9SMWdU/EIFEncr+AmuK1kM87Sq3gRKiiKffIV+xW5M/SMjh8ac3TAjFbrBsziOmpGg67hPCvlMLfRa7pDtNFBcTDQ1Z2afFuyALbsqol2UrL0/hHHSRjVpOrFNfRbOoAUvSa/r9YYc9zuuTTnqOf6ME+abuQ+5K40L8W5x2nJXADGVeImS5VI3+nEaAEgZ4lP02YkwNguPmnMqZJORQsEAci3U5t5Smm1zccJKfFm2pheSEqb1FLAufzMFkLCWEmbaINZP+2zRLsQkvIm5JK10u/NCowTMVt4ZmEhWT5jOX2N2mmDuSqdMGNaI2Asz8+UjyStUzcaJ7u9LVSMie1LwQgZVkQtkmvE7fQU9dA++RVjjpH59YQQEiEKFdCCAnoLCuqC+K95tPU2dWKrWMfrxU5xUPQG4h1TOCAwC6ZoM6WVCIiwrkITmnkJz8YsDlIcr4gH8Utre9xOB+eGkZLJ06xXxUBPwRQooLgGhEq+lz/KJ43T0KZoEIdwkPbTNr1fdScPGinRHo8rBIZ7hyRm24uSe8aZvlmMKrHXaBNxhM2Ef0gAbm+yMiUMn27QhpylG7gBXlTDzwEoEDR14BVaK/5kvjy/rxttOdsopK9Fhe9zOtU/HcUFAIu4Rq/SZ/NJaEI9u4/wPLORII0+ThGLPruHoIZ15/hjMMpPlSkXk/CgUkswWQgwQY7KGMCI0j5so820Qf0Ve5ujh5ANOl2LlZBefQE+jmbjrfbzNgpHEToRpwDYaelwqolreRaauZpauA5e9kNhqnwiRpyi6KeD2Ird2Ek71C7VuTrxGkavsLAUz0qt5jV8Hh3Ch/lBFwq3IsKBIccaWKLbEw+RP1UlAroBLmpGra5lEiEOMYGEj115sxEEAuevJCUb/ZwCxKDuIk0HaZ/eIwd0m+rVne6+ioGoHrsaog6SDnlTjfpsvRpn8mxo8YT4bHBdzwmNFJWguIcTQrXcbSYQ9Ax6bUjhroj5Rp5yRFIx23mPPXeSO2Nxgj82PAA0JDrsIy2rDsMSvcFUAy/k1/EKLOAqSErgRXGf/EWiZxX+UuCSOSRuAwwMy26dYp5iE5ogqcMbj6CGZ/NcnMSnYjaHoACkaA+elv+rHo311Bxhrc/U4pi4S+jx2YlzbB/12Z1Gh+pK9Jt6XiKhtxzDVRiEOarNUAJBrkhGRIVdS41cS/N5FsLszcxt29SNLVgv1qmnzf2pVPQY7nBiONYseACRqraX4XRuRROIh4iwXw8JLfclu8GAlZR98UP2KD/Y9KjKhDdFAAmjMRlkyCpdBYUaRNgLlQsVsBGnXhygzdiBzWKLscscIu4tchkdbnM/hLvhc8VquBGzuQHzuAU+qtIGWQgASAGsQEg/1gAiAYG8pxuBU2CABnmQNDp4WHTRLt4jDvJBcVAequgb0sWWtGTEzWcpBG02bUXBmEp3DYisilRlSgDKpyrg0ooJLGyK695kH2vBVl+8XdsCVm+0R7G7fzBRmewstUngMmXKlClTpkyZI1BwV0zCbI6tZgEAIhn4Lbc7F0Y/45BwX0mZpVCiP3R28MQvOW0ogVixmUtZ3AJSFreAlMUtIGVxC0hZ3ALieLhfHQQN+oeCKQIAqb3dq4Y3YddxXCmbZ2RkPvdbuAERIxqOusEAkTXk7Rmwc6vcCPlDwwXAMXEFNNyVydPal2IRFnJd+jek7cEdv3tW/tH9DBLZ6Rh5if1GaABEQ+oObkuNuY48NfkBSCBGNGDdwfvS+4PGUMuNy8SpvQt4fjrVOSPem3iJnjQeSrTNxS5ghTxF96h9snb+b4S9cdKWlxDjdSIITVDL6DZ6nobHXTrSK+6SDcB1AATUxbmjbPm+ce6QewEdbbcaLRhwB9U14gHaC3u8nAz0kvmusBIQJ3k/If7F+K7r9lOM05yWaerE9aFCiV8eZW3Ob80aA4ALrpqRd6+LnzbIcN7VVwKQX8yd86jX7YWAWkn9E167T1wDiICvlRaaK9yvaxGFEdeRZmE+1qfENgCAjX7qQjvbAATN4oZswBNfnrrxlM9uZ0Zrx/Nr+ZTM3mUd9bmALwDrETAHW7NbtHUoWoMEsA/d8AOIUTc6uBcEpgDmZoMCOcCfwbN68+AmILEVuZQt047xxxYE1Bp6WfxIXquWWvWWF264lcdsljci9yo52mY2mQAI6k25RC0J9Zb8q7tgVdCGzHdavh8A3HB7xK/oCfEFuVrN90TghhsuM2ScI38z0lDQp4GznBanMOK64fKbtSF5eKiYen86rRoYUXWRAGDAmEM7cw3D3d/KexWHglpE7Rm5etQyCaARDeSts3xjo9hd8FeLR3PX+UPEHcY059hGxRRUJTbkBPggAQigRoof52rcBqt65DUyAuryXIruTWb10eL61Idy19lhNBY6eL/EOhF+hAdkR3aLDQbQj3abnsh6pLwwdfrIGkkNPjMbKUmvuA9NnD7CgNxCGQ+PVVIUeq1liYnbiEW2zGUBIpET5TnKLlZz4TydeQWBF0GVfdQB9GSfPXGokhvuOBUxqqHExCXIcXpNBoxteCG7pVd6/OmEwklEKziTS5T6af3R0p4QRgejFhqHu781sKgrlJiHuXalakyFXmISdPrYoz6JW4flX+zVmc3Tkq28DgBs0MmYndn7mtyeS0aeI2REG+z5erYIcZOt+ljUciGzcY7BQXEJ0ji0TF/N52IB+yDTLeB4VetWKNBTup8DAMBBvdLOiCvO5ozrIJ6d07UX+ctOzWp9Rf8beCnXw9SZucLi5nl2TFwDNC95M//j5N62JUEbU5uwIr2lL/DeyVEBaQxkso/Dpke25JQz4VKDVyRv5tc5+8t06OYC9hL+Li/LSdOONkSNKGIg+wz7sFfm+NHVL57mjLg4Pd7CLwugNvs4owN4USH9rHJBGYMf0Z9DJt8rDaGNO2RSDiGJiuRKdnwkcMoYz88VkDV4JNuvoufEdcYCK2C6TjbPV+e7zAdyfu6NI9chyDdkXvvC0OqfAIJak/Vxxa+yrwSvBaDensvaMCDuMy6yaqW70rXcYKpYIbOjDnsKn0LXgf9iGD2Q78A/ZER7TF6b2uPFAIC/QaHyCGOsBvCC3sHpcQTSq8P39aT0BTkf95G+zDBtHzx1sU9mOnFR8Rnj26lkEkAXuhAC2VxEb8EBV2wYrqBekw5HoWH1NXsPMHDUsyTqOymXqolbhypdkWwzQXvp8WwtiSFxll6c2f+U/J6dLORKs4lxQFwG12N+5u8u++XJBf1EsZvpoWwCG67TTcklfHLmyye9r1q5q+sV2fosnkgOnlP8AuZwoFlIAVWcG2IY/TMVE+Q/NIAX9F5OZ8AI8Blcn8nvlqKH+vL6XTr3lloeBEan1qSihtI70kOjkXbVKyrzi7sdTwftyvHPMuHdSy9mt/hKXJ75cxs9eoRiLIvIkT6DB3HE5rGFolFwcQlC5aqLJhtQUO2Ujcar4HcrJTPiuUVs6fC99orxrzSE3qT4Q24AZ5VelCnCI3/Yn/8PErkGXJ/fvzQOgfT/0vYlro/dposobhGaBfLk/oVxe1hDgfYnt3BdRoBrU0w/tLpt4vnxq/QaNB75ShJ4hjq5GgA46yf0yPsvHuVgiCf1R5GWsMH+jryNnjFs5ZGrEm/ic1HEzm8REDCuyyVz30OzCcsAyA8hmZvT0uigXbSHMr4pHcoOl+f7uQDgQ8AjHho9HyZ+5/W4R91PVtCTeUfE6DXajQOZ9wfGRFvx/NxicH2uoJkCSZhB3D/u5GGK/mxeIp4dX9zXAIibRh2fUG8DLsw7pgKAWk37x7s6dalbjPdkpoxmhrjiU7nC/c1Vm/5dSogGcTf1jpn03iJuNqsuJfGj8cUFJNQK6suTa51VOXb2IYBWEpfR83nvumQw+ulBcSGgzsqcXwRxC+yZ+GGqnp/pqzM3+7N5GaLpkSsLbPKZ9gVo1dUgitN2+qv886w93dwDnIdWaJB4Um8afT0L8CSu5EimkSWxQa+rRseYu87Ddqg6fSHO4vnsAkQnNuFx8zkxnAQFkm9kH4B+/A8GCy1vQTFgzqKtI5OL6Z9tPlVKuIXbslpoqt8ffQpayW0pj3RXzJyhmhEUAPHh3M8zod7mtEUzhgAAeTZ2jbSPZuW0T5ZWGlQDsM6ljTlpB+Vbji0feZkjYvrktWL3SMI29aWwVdzXDs1g1NUjiQYRlV81fSX0SorpjYIZFD/JNAi76DrDXW5tpxTVIB6mA+JutbiKZlaXvgQguFrMU6rU39OayTJlypQpU6ZMmTIlwv8DFHL+YRSBi8QAAAAldEVYdGRhdGU6Y3JlYXRlADIwMjAtMDUtMTRUMDk6NDY6MTgrMDA6MDCklitYAAAAJXRFWHRkYXRlOm1vZGlmeQAyMDIwLTA1LTEzVDE4OjU4OjI5KzAwOjAwnxSwRgAAAE10RVh0c29mdHdhcmUASW1hZ2VNYWdpY2sgNi44LjktOSBRMTYgeDg2XzY0IDIwMTktMTEtMTIgaHR0cDovL3d3dy5pbWFnZW1hZ2ljay5vcmdkVP6gAAAAGHRFWHRUaHVtYjo6RG9jdW1lbnQ6OlBhZ2VzADGn/7svAAAAGXRFWHRUaHVtYjo6SW1hZ2U6OkhlaWdodAAyNDAwx8F5FAAAABh0RVh0VGh1bWI6OkltYWdlOjpXaWR0aAAyNDAw0oilDQAAABl0RVh0VGh1bWI6Ok1pbWV0eXBlAGltYWdlL3BuZz+yVk4AAAAXdEVYdFRodW1iOjpNVGltZQAxNTg5Mzk2MzA5qIpUPgAAABJ0RVh0VGh1bWI6OlNpemUAMTQ3S0JC4dnQhQAAACF0RVh0VGh1bWI6OlVSSQBmaWxlOi8vamF2YS1sb2dvLTEucG5n4/HcIAAAAABJRU5ErkJggg==;" vertex="1" parent="1">
          <mxGeometry x="423" y="318" width="34" height="34" as="geometry" />
        </mxCell>
        <mxCell id="7HvjIKDKT4yOWQyoark6-181" value="" style="shape=image;imageAspect=0;aspect=fixed;verticalLabelPosition=bottom;verticalAlign=top;image=https://i.dlpng.com/static/png/7264192_preview.png;" vertex="1" parent="1">
          <mxGeometry x="500" y="325.25" width="77" height="27.25" as="geometry" />
        </mxCell>
        <mxCell id="7HvjIKDKT4yOWQyoark6-182" value="" style="shape=image;imageAspect=0;aspect=fixed;verticalLabelPosition=bottom;verticalAlign=top;image=data:image/png,iVBORw0KGgoAAAANSUhEUgAAAK4AAACuCAQAAAAFBf5lAAAABGdBTUEAALGPC/xhBQAAACBjSFJNAAB6JgAAgIQAAPoAAACA6AAAdTAAAOpgAAA6mAAAF3CculE8AAAAAmJLR0QAAKqNIzIAAAAJcEhZcwAADiwAAA4sAfmb7hAAAAAHdElNRQfkBQ4JNwmPNChoAAAY+0lEQVR42u2deZxdRZXHf6eq7r1v33pf0umks0BCQ4gBAgkQRiDIakbcV2QUkcFtcBhFHRln/MioKKICioofV1R0Bh0RBRQIYRFIQiAmISudrZf03v3WW2f+eEu/7nQ6naTfu6/b933/9L3vLqd+Xa/uqapT5wJlypQpU6ZMmTJlHIKcNuBECYIsYp3oc9qQcRBOG3CiRDHc3H9VDcJOGzITccGsl/8nW5XThozDtK+5FryH2OB3plDltCmHMe3FnY2eOL/Ga6z60mt1p724LwHgJObqVttpUw5j2ot7HgAiVnpBWdwp5xXUmKIR4BanLTmcUnzIHhNDQFjPAbTptCWHM+3FTYIauBYgsNOmHMY0bxZOgw0+A2FAHHTalsOZ5uJuh9/La0Bg3jXte/KlhoB6PfWBqUctk04bM7PwIuARvwaD6QlPwOO0OTMJNyTUO2kYDBb/ClQ4bdBMwoCaRxvAYNplnDzt3Z5SQkIF6X4wGEz/fRW8Ths0c/Ag6JFfQRIMpi1yXrneThkR1LjUZygGBiNBHwYCTps0U/Ah6DFupWi6SRAPeANup02aKUgIP32V4pnWdpOxqNx5mCIUVI34TrqtBVOXcWXZBZsSAlAwF9PvodPSYkBdv0xUHfFov/CGIobLabOnAxYqoC6kjRlhmWLqFlON1+WNoJmsWrlGXmed5zUNpw0vfXzwecQN2J+TNqq+EHb7xhzlgRueoFotvyXWyjvEoukflVEEFGQd3YNYVloMylsCrtHdBg/8wmyRN9FaGhJPGZeHTN9x3u3viEoAaik9khOWqVd8LGT6847xIqKMU8XttBOaOukznmrgIqcNL31qsFAYV4lX86Q9YF4TUSO1NoJGIRaLb9B+MFL0sLEiIstd4UngRtAUN1BnnrQb5UULKL/WqnpxC+1JO2byVhEpN7OTxS+/jKERacXvjcUjvTETfsNcQ8/BBoNpvfGGOlmOGJsULvgi4t5sdwGMhLjLqh3xWt2wasXXqQ8MRkr+3JxXdromiYA7LL6XrpNp/0B93uvN1tqFANQSeiTTnRiUX/aGypM8k0b4xV1I5aQdkp9yGdm5VC8AYyW9lO2n0cdNsyztJLEQUPIL+Q2C+qLfzI/5MFfS1myNpo9N/9iLonESAPU26s/zEL7j8Y5IKyBPTk/ugJGS/xE0yhOTk8aEax5tyvMQ1hqNI1VTwfDTL7LfyQd94fJY7qTx4h0Qt+XV2m7zEoF5mW8tAPQ+ZMdyO9SKaR7TUlxMmLNy7SmD5V1z5ch4rQWrmp7N1ekf16mQ0wZPJwTUhRjO1dsO66zRTyu5JltvwfJ6p609emlKCoaei5Fm9Dm5caRrUIWPEy5G9tkWx/ZS7+qWmBvDoywSa4djI1tDuMetF+U2JZX8mGKJ1VyCiOY24rw+v24aMIKiNrep9GJGs9MGT0jJiUuvYjCzoXUsP6CZoQXndcX49e7gAacNnpASE1eAttOe8b/T0H3cPrLNy5MXxfFOp02esDQlhcAPDtLDmQ2lwqMfWZ7oKOFd9g1m1S+cNnk6oWCeSR0ZT/ZLY6MSxAdHfGAwbPnpN1DprZwsWQRMSbdn/Nw/m778ARsD5iLaly8vtRsXEOqcNnr6QKAFtBkMph51Xn67FcZsqe4ZVXeZnjQbygOOk6YGgHpfOmJc3tsgg3nfCZhn0v7R8oo7g2Z5SnLSeOCzxB3QYOpU5+bXXUINyf8aU3f71eXlunsMmLBqxUOZEFFffryXgFFPT4yWF79WVlneSXMRAGsRvQhGXL4fGBkQbwDBOJfaRtXdDnVaifXjSxsPDJjn0y4wtsjF+fVSADDek5n3TX+SxtUl5rCXOhEA4jLaCxb3+/35Mw5eVEl5ay6UlMHqg2VxjxEvALoCe5GUHwXyPV43PPXi+Zy4MWN1WdxjhgDgCuyjNrU8vytcBUD+a67NfdVsLsGMANMBCbqC9omHPCErby9BXJQNKhV3Lqeyp3tcuACoy8UOeRPgy9vrPpeGwGDaYy4pNwrHjR+A60LxO9E6IqKAXIVhMGLyI79CxGkTx6Xk3MNPwY31qMe38vYNIIyeR0SfWlK12bbTWSs0xAK4kZJ3ue99N6JHvJ4LUiVr9RJ7thFineqWW+UmozvOySKUpQTm+BohqMOdDFOdjshaO+Y5ENqY6h+b+KMaHRQJ+/rN1HYAEuS1f86X0p30WR44UgKWeuyHa07yepzKJuq4loMgGsQ28YC4L7m/FBO3TBmrAHg9crF4m/g6raUt9Bz9UF2nlrjCNWLin3kVAPFmOiA/J30T1Q4/KoV3hTrfnO31u2vU6fLztCs9DkzrjOVACSZ0mgoIAUu9Tt4kHqZO2HRA/Ey8y2jyTrKRsmAukD8z3h5SEwczSUgQsr27KryezFPpoYyHscU6E2hwWoippRFvhqqQ7xK/SYfj007xWbUoJCcf81WB6oDrjcZJwNwJjlqa+YxGQjbRUxl5H51RQf4WAKtKfYT+mov3elCdvIyO7VnfiGZXnWvWuN8txwp4TDOiFhpnBFqaVNOY72sByCszSwGS9F6nFZlS5BJ6Mi+o2aYbZ52Qi3oG/hlh0/BYtWqeXCGvkp+me+hhelb+SK32Bxei/rAzXHCFsnWXfuVThVy+WmxX7HJembcl+NZ958lHsI32iWGjz0y0Job5+cNOOhtu2m7uFS6hAgMGw+1PVNhkViarXvS8OIebdZCq2Y8wTEiAtoo7rPuHuz3YOo4BYRzoxcs4BwCoUXpUfwyFoqjiSsif6rm4gitHyqqvxpsQQy9Fk+2xwbX79Dgu69OQbqrTrqgU1ewCx9zwAwkDKpsck4EkdWE7bRbrxcNX7H4Uw2gf14YDAJA5jVyGUci+XZFbdDe0mWrllTiDT0Md+2CegAUJSqIXfbQdu7CDdoidRltk2OaJo3D8MGX3T/itAECPqcsQK1x3osjNQhRI4AXXC145EOE6XctNVMFz0KQ9ZFKNVgBAJrmhmEBg0kjyMNsAIGx06BixOIB23o2o2Is+OigHvL2HEm/CA7CRxPBRLYgh3oQz03/TpmQsgu6CldZxX+QseLDe6hV+lQpGBQB4PSpgm7bQIBgpEY/1xRMA4NZGf3/S4rnJTrvrOO/mxwDk9fY3IQD0qCv1Wu20ADMHBbM5u8hK3hsy/y4Wq/jgl5HALNF04peaAAMul7g744ZtkAucLnVRMExaIf/Te94NqC7gXRQMRZ9AFAymNuNip0tdcCK4BHIRfR998ifBguajEbAUfQT9YLDYqi47BzM80qERgFpNr6ZbQNdxeS7vBRAyjTq1TC0LGUdK3kYgL92MATBS4o/m6UBhG6ASwI9AQDye6Qr3053yUrnAVef1zJP+Cc5qxWnktzzVao5artaIG+lr4kHaih7qkv9mhg+vjwQJ0Uw/QBxMbeIWMwLcXJTyOeqKBUC+gZ/ry3I74uimARwU++xemcQeexgk2UyKBMg2E4YGYFSmamFSExp1gILsQn4mgJR4TH3DeHxosAU7Mrv8sIyeS+zPYyl10YP0zdDGqD66NzwjIKhW+gMSY2K/RgfaMWnSxDj6x0a/eMy6+K2UN2Y2V3yb+mmvuFMt9xvFXQDkeCcCQFhciXfxEo4c5yICRoy60UYb6Bm8LHdZvXN0JzpwEf5Uw2/mt1Kcfi3/ZO5ke6jIBSsBcStwCG5vsoWX89k8H/WIsO+oj/IUDXI/HUI7dovNeJnaZIdrUOuB3AEuqOrYOzhF66ytQ0PN2O1AyUpA3CwVsESPJxkWdbolFVZ1dgVDmLIaHi2IRTTVqaOATGCPjqp2tOlOY0AOLUzYvHGcqwVhmjEaiAfh3AuRSkjcw7kEPnpVHZIxmIjoumScn3DapDKlQgl1UxQ0ecIBIZMJp02ZshKVBGGYomuhuDqujNtncKiGE7jg8cibaA+Y/h04lsQqDagnwyVVaT46SsCqRdgMcZ3+BkwAnfSAfIxekn2637JPTST4r2OOZhDCashEUEewUM/FPG6hXfLb+iXSKaeLMoYSEPdk3IMLvm9fk9uRpEPo4w4xxK/BVh3JvJlGocTslEfUcDWqOYRItlmjvfRLdZ/vlXjROwolziJIqKuoaxLd2wk/dED8wDyrlQo5JnxslEDU8GZE0Pg7+QGxEScyoaU5ARfccRQjOHRa0QSGu0F8jP6CgWOus3F6lX4mPiRaPKq0VkYUuc2NQIgBj12Belmn/Ik2sa1if0p3AAAMEGw/lvLZOJNP5Sp4JnQU4xiiDtqEjbRBbqL9SMWdU/EIFEncr+AmuK1kM87Sq3gRKiiKffIV+xW5M/SMjh8ac3TAjFbrBsziOmpGg67hPCvlMLfRa7pDtNFBcTDQ1Z2afFuyALbsqol2UrL0/hHHSRjVpOrFNfRbOoAUvSa/r9YYc9zuuTTnqOf6ME+abuQ+5K40L8W5x2nJXADGVeImS5VI3+nEaAEgZ4lP02YkwNguPmnMqZJORQsEAci3U5t5Smm1zccJKfFm2pheSEqb1FLAufzMFkLCWEmbaINZP+2zRLsQkvIm5JK10u/NCowTMVt4ZmEhWT5jOX2N2mmDuSqdMGNaI2Asz8+UjyStUzcaJ7u9LVSMie1LwQgZVkQtkmvE7fQU9dA++RVjjpH59YQQEiEKFdCCAnoLCuqC+K95tPU2dWKrWMfrxU5xUPQG4h1TOCAwC6ZoM6WVCIiwrkITmnkJz8YsDlIcr4gH8Utre9xOB+eGkZLJ06xXxUBPwRQooLgGhEq+lz/KJ43T0KZoEIdwkPbTNr1fdScPGinRHo8rBIZ7hyRm24uSe8aZvlmMKrHXaBNxhM2Ef0gAbm+yMiUMn27QhpylG7gBXlTDzwEoEDR14BVaK/5kvjy/rxttOdsopK9Fhe9zOtU/HcUFAIu4Rq/SZ/NJaEI9u4/wPLORII0+ThGLPruHoIZ15/hjMMpPlSkXk/CgUkswWQgwQY7KGMCI0j5so820Qf0Ve5ujh5ANOl2LlZBefQE+jmbjrfbzNgpHEToRpwDYaelwqolreRaauZpauA5e9kNhqnwiRpyi6KeD2Ird2Ek71C7VuTrxGkavsLAUz0qt5jV8Hh3Ch/lBFwq3IsKBIccaWKLbEw+RP1UlAroBLmpGra5lEiEOMYGEj115sxEEAuevJCUb/ZwCxKDuIk0HaZ/eIwd0m+rVne6+ioGoHrsaog6SDnlTjfpsvRpn8mxo8YT4bHBdzwmNFJWguIcTQrXcbSYQ9Ax6bUjhroj5Rp5yRFIx23mPPXeSO2Nxgj82PAA0JDrsIy2rDsMSvcFUAy/k1/EKLOAqSErgRXGf/EWiZxX+UuCSOSRuAwwMy26dYp5iE5ogqcMbj6CGZ/NcnMSnYjaHoACkaA+elv+rHo311Bxhrc/U4pi4S+jx2YlzbB/12Z1Gh+pK9Jt6XiKhtxzDVRiEOarNUAJBrkhGRIVdS41cS/N5FsLszcxt29SNLVgv1qmnzf2pVPQY7nBiONYseACRqraX4XRuRROIh4iwXw8JLfclu8GAlZR98UP2KD/Y9KjKhDdFAAmjMRlkyCpdBYUaRNgLlQsVsBGnXhygzdiBzWKLscscIu4tchkdbnM/hLvhc8VquBGzuQHzuAU+qtIGWQgASAGsQEg/1gAiAYG8pxuBU2CABnmQNDp4WHTRLt4jDvJBcVAequgb0sWWtGTEzWcpBG02bUXBmEp3DYisilRlSgDKpyrg0ooJLGyK695kH2vBVl+8XdsCVm+0R7G7fzBRmewstUngMmXKlClTpkyZI1BwV0zCbI6tZgEAIhn4Lbc7F0Y/45BwX0mZpVCiP3R28MQvOW0ogVixmUtZ3AJSFreAlMUtIGVxC0hZ3ALieLhfHQQN+oeCKQIAqb3dq4Y3YddxXCmbZ2RkPvdbuAERIxqOusEAkTXk7Rmwc6vcCPlDwwXAMXEFNNyVydPal2IRFnJd+jek7cEdv3tW/tH9DBLZ6Rh5if1GaABEQ+oObkuNuY48NfkBSCBGNGDdwfvS+4PGUMuNy8SpvQt4fjrVOSPem3iJnjQeSrTNxS5ghTxF96h9snb+b4S9cdKWlxDjdSIITVDL6DZ6nobHXTrSK+6SDcB1AATUxbmjbPm+ce6QewEdbbcaLRhwB9U14gHaC3u8nAz0kvmusBIQJ3k/If7F+K7r9lOM05yWaerE9aFCiV8eZW3Ob80aA4ALrpqRd6+LnzbIcN7VVwKQX8yd86jX7YWAWkn9E167T1wDiICvlRaaK9yvaxGFEdeRZmE+1qfENgCAjX7qQjvbAATN4oZswBNfnrrxlM9uZ0Zrx/Nr+ZTM3mUd9bmALwDrETAHW7NbtHUoWoMEsA/d8AOIUTc6uBcEpgDmZoMCOcCfwbN68+AmILEVuZQt047xxxYE1Bp6WfxIXquWWvWWF264lcdsljci9yo52mY2mQAI6k25RC0J9Zb8q7tgVdCGzHdavh8A3HB7xK/oCfEFuVrN90TghhsuM2ScI38z0lDQp4GznBanMOK64fKbtSF5eKiYen86rRoYUXWRAGDAmEM7cw3D3d/KexWHglpE7Rm5etQyCaARDeSts3xjo9hd8FeLR3PX+UPEHcY059hGxRRUJTbkBPggAQigRoof52rcBqt65DUyAuryXIruTWb10eL61Idy19lhNBY6eL/EOhF+hAdkR3aLDQbQj3abnsh6pLwwdfrIGkkNPjMbKUmvuA9NnD7CgNxCGQ+PVVIUeq1liYnbiEW2zGUBIpET5TnKLlZz4TydeQWBF0GVfdQB9GSfPXGokhvuOBUxqqHExCXIcXpNBoxteCG7pVd6/OmEwklEKziTS5T6af3R0p4QRgejFhqHu781sKgrlJiHuXalakyFXmISdPrYoz6JW4flX+zVmc3Tkq28DgBs0MmYndn7mtyeS0aeI2REG+z5erYIcZOt+ljUciGzcY7BQXEJ0ji0TF/N52IB+yDTLeB4VetWKNBTup8DAMBBvdLOiCvO5ozrIJ6d07UX+ctOzWp9Rf8beCnXw9SZucLi5nl2TFwDNC95M//j5N62JUEbU5uwIr2lL/DeyVEBaQxkso/Dpke25JQz4VKDVyRv5tc5+8t06OYC9hL+Li/LSdOONkSNKGIg+wz7sFfm+NHVL57mjLg4Pd7CLwugNvs4owN4USH9rHJBGYMf0Z9DJt8rDaGNO2RSDiGJiuRKdnwkcMoYz88VkDV4JNuvoufEdcYCK2C6TjbPV+e7zAdyfu6NI9chyDdkXvvC0OqfAIJak/Vxxa+yrwSvBaDensvaMCDuMy6yaqW70rXcYKpYIbOjDnsKn0LXgf9iGD2Q78A/ZER7TF6b2uPFAIC/QaHyCGOsBvCC3sHpcQTSq8P39aT0BTkf95G+zDBtHzx1sU9mOnFR8Rnj26lkEkAXuhAC2VxEb8EBV2wYrqBekw5HoWH1NXsPMHDUsyTqOymXqolbhypdkWwzQXvp8WwtiSFxll6c2f+U/J6dLORKs4lxQFwG12N+5u8u++XJBf1EsZvpoWwCG67TTcklfHLmyye9r1q5q+sV2fosnkgOnlP8AuZwoFlIAVWcG2IY/TMVE+Q/NIAX9F5OZ8AI8Blcn8nvlqKH+vL6XTr3lloeBEan1qSihtI70kOjkXbVKyrzi7sdTwftyvHPMuHdSy9mt/hKXJ75cxs9eoRiLIvIkT6DB3HE5rGFolFwcQlC5aqLJhtQUO2Ujcar4HcrJTPiuUVs6fC99orxrzSE3qT4Q24AZ5VelCnCI3/Yn/8PErkGXJ/fvzQOgfT/0vYlro/dposobhGaBfLk/oVxe1hDgfYnt3BdRoBrU0w/tLpt4vnxq/QaNB75ShJ4hjq5GgA46yf0yPsvHuVgiCf1R5GWsMH+jryNnjFs5ZGrEm/ic1HEzm8REDCuyyVz30OzCcsAyA8hmZvT0uigXbSHMr4pHcoOl+f7uQDgQ8AjHho9HyZ+5/W4R91PVtCTeUfE6DXajQOZ9wfGRFvx/NxicH2uoJkCSZhB3D/u5GGK/mxeIp4dX9zXAIibRh2fUG8DLsw7pgKAWk37x7s6dalbjPdkpoxmhrjiU7nC/c1Vm/5dSogGcTf1jpn03iJuNqsuJfGj8cUFJNQK6suTa51VOXb2IYBWEpfR83nvumQw+ulBcSGgzsqcXwRxC+yZ+GGqnp/pqzM3+7N5GaLpkSsLbPKZ9gVo1dUgitN2+qv886w93dwDnIdWaJB4Um8afT0L8CSu5EimkSWxQa+rRseYu87Ddqg6fSHO4vnsAkQnNuFx8zkxnAQFkm9kH4B+/A8GCy1vQTFgzqKtI5OL6Z9tPlVKuIXbslpoqt8ffQpayW0pj3RXzJyhmhEUAPHh3M8zod7mtEUzhgAAeTZ2jbSPZuW0T5ZWGlQDsM6ljTlpB+Vbji0feZkjYvrktWL3SMI29aWwVdzXDs1g1NUjiQYRlV81fSX0SorpjYIZFD/JNAi76DrDXW5tpxTVIB6mA+JutbiKZlaXvgQguFrMU6rU39OayTJlypQpU6ZMmTIlwv8DFHL+YRSBi8QAAAAldEVYdGRhdGU6Y3JlYXRlADIwMjAtMDUtMTRUMDk6NDY6MTgrMDA6MDCklitYAAAAJXRFWHRkYXRlOm1vZGlmeQAyMDIwLTA1LTEzVDE4OjU4OjI5KzAwOjAwnxSwRgAAAE10RVh0c29mdHdhcmUASW1hZ2VNYWdpY2sgNi44LjktOSBRMTYgeDg2XzY0IDIwMTktMTEtMTIgaHR0cDovL3d3dy5pbWFnZW1hZ2ljay5vcmdkVP6gAAAAGHRFWHRUaHVtYjo6RG9jdW1lbnQ6OlBhZ2VzADGn/7svAAAAGXRFWHRUaHVtYjo6SW1hZ2U6OkhlaWdodAAyNDAwx8F5FAAAABh0RVh0VGh1bWI6OkltYWdlOjpXaWR0aAAyNDAw0oilDQAAABl0RVh0VGh1bWI6Ok1pbWV0eXBlAGltYWdlL3BuZz+yVk4AAAAXdEVYdFRodW1iOjpNVGltZQAxNTg5Mzk2MzA5qIpUPgAAABJ0RVh0VGh1bWI6OlNpemUAMTQ3S0JC4dnQhQAAACF0RVh0VGh1bWI6OlVSSQBmaWxlOi8vamF2YS1sb2dvLTEucG5n4/HcIAAAAABJRU5ErkJggg==;" vertex="1" parent="1">
          <mxGeometry x="571" y="320.5" width="34" height="34" as="geometry" />
        </mxCell>
      </root>
    </mxGraphModel>
  </diagram>
</mxfile>
